<?xml version="1.0" encoding="utf-8"?>
<!-- Generator: Adobe Illustrator 23.0.1, SVG Export Plug-In . SVG Version: 6.00 Build 0)  -->
<svg version="1.1" id="Calque_1" xmlns="http://www.w3.org/2000/svg" xmlns:xlink="http://www.w3.org/1999/xlink" x="0px" y="0px"
	 viewBox="0 0 10 22" style="enable-background:new 0 0 10 22;" xml:space="preserve">
<style type="text/css">
	.st0{fill-rule:evenodd;clip-rule:evenodd;fill:#70727F;}
</style>
<path id="Path" class="st0" d="M8.5,1.3c-0.8-0.8-2-1.2-3.2-1.2l-0.7,0c-1,0-2,0.4-2.8,1.1C0.8,2.2,0.2,3.4,0.2,4.8L0.2,17.7
	c0,1.2,0.5,2.3,1.3,3.1c0.8,0.8,2,1.2,3.2,1.2l0.7,0c1,0,2-0.4,2.8-1.1c0.1-0.1,0.2-0.2,0.4-0.3c0.8-0.9,1.3-2,1.3-3.2
	c0,0,0,0,0-8.7c0-1.6-1.3-2.8-2.8-2.7L6.6,6C6,6,5.4,6.2,4.9,6.6C4.2,7.2,3.8,8,3.8,8.9l0,8.7c0,0.6,0.5,1,1,1
	c0.2,0,0.5-0.1,0.7-0.3c0.2-0.2,0.4-0.5,0.4-0.8l0-8.7c0-0.2,0.1-0.4,0.3-0.6C6.3,8.1,6.5,8,6.6,8L7,8c0.2,0,0.4,0.1,0.5,0.2
	c0.1,0.1,0.2,0.3,0.2,0.5l0,8.7c0,0.7-0.3,1.4-0.9,1.9c-0.4,0.4-1,0.6-1.5,0.6l-0.7,0c-0.6,0-1.2-0.2-1.7-0.6
	c-0.4-0.4-0.7-1-0.7-1.6L2.3,4.7c0-0.7,0.3-1.4,0.9-1.9c0.4-0.4,1-0.6,1.5-0.6l0.7,0c1.3-0.1,2.4,1,2.4,2.3c0,0.3,0.1,0.5,0.3,0.7
	c0.2,0.2,0.5,0.3,0.7,0.3c0.2,0,0.5-0.1,0.7-0.3C9.7,5,9.8,4.7,9.8,4.4C9.8,3.2,9.4,2.1,8.5,1.3z"/>
</svg>
