<?xml version="1.0" encoding="utf-8"?>
<!-- Generator: Adobe Illustrator 23.0.1, SVG Export Plug-In . SVG Version: 6.00 Build 0)  -->
<svg version="1.1" id="Calque_1" xmlns="http://www.w3.org/2000/svg" xmlns:xlink="http://www.w3.org/1999/xlink" x="0px" y="0px"
	 viewBox="0 0 22 22" style="enable-background:new 0 0 22 22;" xml:space="preserve">
<style type="text/css">
	.st0{fill:#70727F;}
</style>
<path id="Shape" class="st0" d="M0,19.7C0,21,1,22,2.3,22h17.4c1.3,0,2.3-1,2.3-2.3V2.3C22,1,21,0,19.7,0H2.3C1,0,0,1,0,2.3V19.7z
	 M19.7,20.9H2.3c-0.7,0-1.2-0.5-1.2-1.2v-2.9l4.2-4.2l3.6,3.6c0.2,0.2,0.6,0.2,0.8,0l6.4-6.4l4.8,4.8v5.1
	C20.9,20.4,20.4,20.9,19.7,20.9z M2.3,1.1h17.4c0.7,0,1.2,0.5,1.2,1.2V13l-4.5-4.5c-0.2-0.2-0.6-0.2-0.8,0L9.2,15l-3.6-3.6
	c-0.2-0.2-0.6-0.2-0.8,0l-3.8,3.8V2.3C1.1,1.6,1.6,1.1,2.3,1.1z"/>
<path class="st0" d="M7,9c1.7,0,3-1.3,3-3S8.7,3,7,3S4,4.3,4,6S5.3,9,7,9z M7,4.2C8,4.2,8.8,5,8.8,6S8,7.8,7,7.8S5.2,7,5.2,6
	S6,4.2,7,4.2z"/>
</svg>
