<?xml version="1.0" encoding="utf-8"?>
<!-- Generator: Adobe Illustrator 23.0.1, SVG Export Plug-In . SVG Version: 6.00 Build 0)  -->
<svg version="1.1" id="Calque_1" xmlns="http://www.w3.org/2000/svg" xmlns:xlink="http://www.w3.org/1999/xlink" x="0px" y="0px"
	 viewBox="0 0 87 87" style="enable-background:new 0 0 87 87;" xml:space="preserve">
<style type="text/css">
	.st0{fill-rule:evenodd;clip-rule:evenodd;fill:#466CE5;}
	.st1{fill:#FFFFFF;}
	.st2{fill-rule:evenodd;clip-rule:evenodd;fill:#FFFFFF;}
</style>
<circle id="Oval" class="st0" cx="43.5" cy="43.5" r="43.5"/>
<path id="Shape" class="st1" d="M61.7,25.3C57,20.6,50.7,18,44,18s-13,2.6-17.7,7.3c-9.1,9.1-9.8,23.7-1.7,33.5
	c-1.1,2.3-2.4,3.8-3.9,4.6c-0.9,0.5-1.4,1.4-1.3,2.4c0.2,1,0.9,1.8,1.9,2c0.6,0.1,1.2,0.1,1.8,0.1c3.1,0,6.3-1.1,9-2.9
	c3.6,1.9,7.7,3,11.8,3c6.7,0,13-2.6,17.7-7.3S69,49.7,69,43S66.4,30,61.7,25.3z M59.7,58.7c-4.2,4.2-9.8,6.5-15.7,6.5
	c-4,0-7.8-1.1-11.2-3c-0.2-0.1-0.5-0.2-0.7-0.2c-0.3,0-0.6,0.1-0.9,0.3c-3.2,2.5-6.4,2.8-7.8,2.9c1.7-1.3,3.1-3.2,4.3-5.9
	c0.2-0.5,0.1-1.1-0.2-1.5c-7.8-8.8-7.3-22.1,0.9-30.4c4.2-4.2,9.8-6.5,15.7-6.5s11.5,2.3,15.7,6.5C68.3,36,68.3,50,59.7,58.7z"/>
<path id="Path" class="st2" d="M54.6,34H34.4c-0.8,0-1.4,0.7-1.4,1.5s0.6,1.5,1.4,1.5h20.3c0.8,0,1.4-0.7,1.4-1.5S55.4,34,54.6,34z"
	/>
<path class="st2" d="M54.6,41H34.4c-0.8,0-1.4,0.7-1.4,1.5s0.6,1.5,1.4,1.5h20.3c0.8,0,1.4-0.7,1.4-1.5S55.4,41,54.6,41z"/>
<path class="st2" d="M54.6,49H34.4c-0.8,0-1.4,0.7-1.4,1.5c0,0.8,0.6,1.5,1.4,1.5h20.3c0.8,0,1.4-0.7,1.4-1.5
	C56,49.7,55.4,49,54.6,49z"/>
</svg>
