<svg width="23" height="23" viewBox="0 0 23 23" fill="none" xmlns="http://www.w3.org/2000/svg">
<path fill-rule="evenodd" clip-rule="evenodd" d="M20.4482 14.3347C20.1435 14.3347 19.8965 14.5954 19.8965 14.9171V20.0879C19.8954 21.0525 19.155 21.8341 18.2411 21.835H2.75888C1.845 21.8341 1.10463 21.0525 1.10355 20.0879V4.91186C1.10463 3.94754 1.845 3.16588 2.75888 3.16475H7.65803C7.9628 3.16475 8.20981 2.90404 8.20981 2.58237C8.20981 2.26093 7.9628 2 7.65803 2H2.75888C1.23589 2.00182 0.0017243 3.30442 0 4.91186V20.0881C0.0017243 21.6956 1.23589 22.9982 2.75888 23H18.2411C19.7641 22.9982 20.9983 21.6956 21 20.0881V14.9171C21 14.5954 20.753 14.3347 20.4482 14.3347Z" fill="white"/>
<path fill-rule="evenodd" clip-rule="evenodd" d="M18.1708 0.808741C19.1294 -0.26958 20.6835 -0.26958 21.6421 0.808741L22.2822 1.52874C23.2393 2.60778 23.2393 4.35457 22.2822 5.43361L12.5511 16.3805C12.4845 16.4555 12.4018 16.5097 12.311 16.538L7.69107 17.9778C7.50165 18.0367 7.29881 17.9766 7.15968 17.8203C7.02076 17.6638 6.96728 17.4356 7.0199 17.2225L8.29959 12.0255C8.32473 11.9234 8.37289 11.8304 8.43958 11.7554L18.1708 0.808741ZM17.5923 3.195L9.62807 12.1542L12.1964 15.0436L20.1609 6.08434L17.5923 3.195ZM9.115 13.3124L11.1671 15.621L8.32857 16.5056L9.115 13.3124ZM20.9324 5.2167L21.5109 4.56597C22.0425 3.96653 22.0425 2.99606 21.5109 2.39638L20.8706 1.67638C20.3381 1.07742 19.4748 1.07742 18.9423 1.67638L18.3636 2.32711L20.9324 5.2167Z" fill="white"/>
</svg>
