<?xml version="1.0" encoding="utf-8"?>
<!-- Generator: Adobe Illustrator 23.0.1, SVG Export Plug-In . SVG Version: 6.00 Build 0)  -->
<svg version="1.1" id="Calque_1" xmlns="http://www.w3.org/2000/svg" xmlns:xlink="http://www.w3.org/1999/xlink" x="0px" y="0px"
	 viewBox="0 0 35 35" style="enable-background:new 0 0 35 35;" xml:space="preserve">
<style type="text/css">
	.st0{fill-rule:evenodd;clip-rule:evenodd;fill:#5079F8;}
	.st1{fill-rule:evenodd;clip-rule:evenodd;fill:#FFFFFF;}
	.st2{fill:#FFFFFF;}
</style>
<path id="Rectangle" class="st0" d="M4,0h27c2.2,0,4,1.8,4,4v27c0,2.2-1.8,4-4,4H4c-2.2,0-4-1.8-4-4V4C0,1.8,1.8,0,4,0z"/>
<path id="Path" class="st1" d="M26.4,20.3c-0.3,0-0.6,0.3-0.6,0.6v5.2c0,1-0.7,1.7-1.7,1.7H8.8c-0.9,0-1.7-0.8-1.7-1.7V10.9
	c0-1,0.7-1.7,1.7-1.7h4.9c0.3,0,0.6-0.3,0.6-0.6C14.2,8.3,14,8,13.7,8H8.8C7.2,8,6,9.3,6,10.9v15.2C6,27.7,7.2,29,8.8,29h15.5
	c1.5,0,2.8-1.3,2.8-2.9v-5.2C27,20.6,26.8,20.3,26.4,20.3z"/>
<path id="Shape" class="st2" d="M27.6,6.8c-1-1.1-2.5-1.1-3.5,0l-9.7,10.9c-0.1,0.1-0.1,0.2-0.1,0.3L13,23.2c-0.1,0.2,0,0.4,0.1,0.6
	c0.1,0.2,0.3,0.2,0.5,0.2l4.6-1.4c0.1,0,0.2-0.1,0.2-0.2l9.7-10.9c1-1.1,1-2.8,0-3.9L27.6,6.8z M15.6,18.2l8-9l2.6,2.9l-8,9
	L15.6,18.2z M15.1,19.3l2.1,2.3l-2.8,0.9L15.1,19.3z M27.5,10.6l-0.6,0.7l-2.6-2.9l0.6-0.7c0.5-0.6,1.4-0.6,1.9,0l0.6,0.7
	C28,9,28,10,27.5,10.6z"/>
</svg>
