<svg width="15" height="15" viewBox="0 0 15 15" fill="none" xmlns="http://www.w3.org/2000/svg">
<path fill-rule="evenodd" clip-rule="evenodd" d="M1.71592 1.71617C4.0043 -0.572058 7.72881 -0.572058 10.0172 1.71617C12.0556 3.7549 12.2738 6.92807 10.6819 9.21531C10.9096 9.26342 11.1274 9.37404 11.3035 9.54964L14.6361 12.883C15.1213 13.3667 15.1213 14.1514 14.6361 14.6365C14.153 15.1212 13.3682 15.1212 12.8825 14.6365L9.5499 11.3041C9.3728 11.127 9.26267 10.9098 9.21455 10.6821C6.92766 12.2729 3.75378 12.0546 1.71592 10.0174C-0.571972 7.72867 -0.571972 4.0049 1.71592 1.71617ZM2.76809 8.9653C4.47606 10.6737 7.25655 10.6737 8.96503 8.9653C10.6735 7.25694 10.6735 4.47713 8.96503 2.76877C7.25655 1.06091 4.47606 1.06091 2.76809 2.76877C1.0606 4.47713 1.0606 7.25694 2.76809 8.9653Z" fill="#B7BECF"/>
</svg>
