<svg width="15" height="15" viewBox="0 0 15 15" fill="none" xmlns="http://www.w3.org/2000/svg">
<path fill-rule="evenodd" clip-rule="evenodd" d="M14.9236 0.0601237C14.8569 -0.00315478 14.7618 -0.0178358 14.6813 0.0225249L0.129744 7.32775C0.0514035 7.36709 0.000955095 7.45155 1.33919e-05 7.54486C-0.000928311 7.63818 0.0478609 7.7238 0.125439 7.76493L4.24351 9.94857C4.31902 9.98864 4.40907 9.97958 4.47651 9.92512L8.48041 6.69172L5.33718 10.1851C5.29234 10.235 5.26947 10.3032 5.2744 10.3725L5.58736 14.7763C5.59431 14.8739 5.65485 14.9573 5.7409 14.9879C5.76391 14.996 5.78754 15 5.8109 15C5.87498 15 5.93732 14.9703 5.98068 14.916L8.16642 12.1794L10.8684 13.5743C10.9271 13.6046 10.995 13.6058 11.0546 13.5778C11.1142 13.5498 11.1596 13.4952 11.179 13.4283L14.9897 0.314837C15.0163 0.223262 14.9904 0.123402 14.9236 0.0601237Z" fill="white"/>
</svg>
