<?xml version="1.0" encoding="utf-8"?>
<!-- Generator: Adobe Illustrator 23.0.1, SVG Export Plug-In . SVG Version: 6.00 Build 0)  -->
<svg version="1.1" id="Calque_1" xmlns="http://www.w3.org/2000/svg" xmlns:xlink="http://www.w3.org/1999/xlink" x="0px" y="0px"
	 viewBox="0 0 33 33" style="enable-background:new 0 0 33 33;" xml:space="preserve">
<style type="text/css">
	.st0{fill-rule:evenodd;clip-rule:evenodd;fill:#4F78F6;}
	.st1{fill-rule:evenodd;clip-rule:evenodd;fill:#FFFFFF;}
</style>
<circle id="Oval" class="st0" cx="16.5" cy="16.5" r="16.5"/>
<path class="st1" d="M23.9,9.1C23.9,9,23.8,9,23.7,9L9.1,16.3c-0.1,0-0.1,0.1-0.1,0.2s0,0.2,0.1,0.2l4.1,2.2c0.1,0,0.2,0,0.2,0
	l4-3.2l-3.1,3.5c0,0-0.1,0.1-0.1,0.2l0.3,4.4c0,0.1,0.1,0.2,0.2,0.2c0,0,0,0,0.1,0c0.1,0,0.1,0,0.2-0.1l2.2-2.7l2.7,1.4
	c0.1,0,0.1,0,0.2,0c0.1,0,0.1-0.1,0.1-0.1L24,9.3C24,9.2,24,9.1,23.9,9.1z"/>
</svg>
